# xmcd
#
# Track frame offsets:
#	150
#	15715
#	30638
#	47450
#	64394
#	81143
#	93368
#	109258
#	125090
#	141818
#	158988
#	173929
#	190791
#	206257
#	223202
#	240356
#	253408
#	267637
#	280912
#
# Disc length: 3881 seconds
#
# Revision: 1
# Processed by: cddbd v1.5.2PL0 Copyright (c) Steve Scherf et al.
# Submitted via: audiograbber 1.83.01
#
DISCID=1c0f2713
DTITLE=Various Artist - Hott Country 175
DYEAR=2010
DGENRE=Country
TTITLE0=Doc Walker - From Here
TTITLE1=Shane Yellowbird - I Get That A Lot These Days
TTITLE2=Codie Prevost - Rolling Back To You
TTITLE3=Gwyneth Paltrow - Country Strong
TTITLE4=Rascal Flatts - Why Wait
TTITLE5=Trailer Choir - Shakin' That Tailgate
TTITLE6=Dieerks Bentley - Draw Me A Map
TTITLE7=Julianne Hough - Is That So Wrong
TTITLE8=Zac Brown Band Feat Alan Jackson - As She Walks Away
TTITLE9=Corb Lund - My Prairie
TTITLE10=Adam Brand - Ready For Love
TTITLE11=Carolyn Dawm Johnson - The Whole Thing
TTITLE12=Jason Greely - Around For A Reason
TTITLE13=Luke Bryan - Someone Else Calling You Baby
TTITLE14=Victoria Banks - Don't Leave The Leavin'
TTITLE15=Gretchen Wilson - Earring Song
TTITLE16=Joe Hikk - The Big Spoon
TTITLE17=Higgins - Burn You Back
TTITLE18=Good Brothers - Fox On The Run (1975 )
EXTD=SEptember 2010
EXTT0=
EXTT1=
EXTT2=
EXTT3=
EXTT4=
EXTT5=
EXTT6=
EXTT7=
EXTT8=
EXTT9=
EXTT10=
EXTT11=
EXTT12=
EXTT13=
EXTT14=
EXTT15=
EXTT16=
EXTT17=
EXTT18=
PLAYORDER=
